<mxfile host="app.diagrams.net" agent="Mozilla/5.0 (Windows NT 10.0; Win64; x64) AppleWebKit/537.36 (KHTML, like Gecko) Chrome/128.0.0.0 Safari/537.36 OPR/114.0.0.0" version="25.0.3">
  <diagram name="หน้า-1" id="op5KAp0KRE8NkX5L69Sa">
    <mxGraphModel dx="807" dy="815" grid="1" gridSize="10" guides="1" tooltips="1" connect="1" arrows="1" fold="1" page="1" pageScale="1" pageWidth="827" pageHeight="1169" math="0" shadow="0">
      <root>
        <mxCell id="0" />
        <mxCell id="1" parent="0" />
        <mxCell id="hztvCsiQBSSxoYdSa1Fd-7" value="" style="edgeStyle=none;curved=1;orthogonalLoop=1;jettySize=auto;html=1;fontSize=12;startSize=8;endSize=8;" edge="1" parent="1" source="hztvCsiQBSSxoYdSa1Fd-5" target="hztvCsiQBSSxoYdSa1Fd-6">
          <mxGeometry relative="1" as="geometry" />
        </mxCell>
        <mxCell id="hztvCsiQBSSxoYdSa1Fd-5" value="เริ่มต้น" style="rounded=1;whiteSpace=wrap;html=1;arcSize=50;" vertex="1" parent="1">
          <mxGeometry x="190" y="10" width="120" height="50" as="geometry" />
        </mxCell>
        <mxCell id="hztvCsiQBSSxoYdSa1Fd-9" value="" style="edgeStyle=none;curved=1;orthogonalLoop=1;jettySize=auto;html=1;fontSize=12;startSize=8;endSize=8;" edge="1" parent="1" source="hztvCsiQBSSxoYdSa1Fd-6" target="hztvCsiQBSSxoYdSa1Fd-8">
          <mxGeometry relative="1" as="geometry" />
        </mxCell>
        <mxCell id="hztvCsiQBSSxoYdSa1Fd-6" value="สร้าง value มารับค้าผู้ใช้" style="rounded=0;whiteSpace=wrap;html=1;" vertex="1" parent="1">
          <mxGeometry x="175" y="100" width="150" height="40" as="geometry" />
        </mxCell>
        <mxCell id="hztvCsiQBSSxoYdSa1Fd-13" style="edgeStyle=none;curved=1;orthogonalLoop=1;jettySize=auto;html=1;exitX=0.5;exitY=1;exitDx=0;exitDy=0;entryX=0.5;entryY=0;entryDx=0;entryDy=0;fontSize=12;startSize=8;endSize=8;" edge="1" parent="1" source="hztvCsiQBSSxoYdSa1Fd-8" target="hztvCsiQBSSxoYdSa1Fd-12">
          <mxGeometry relative="1" as="geometry" />
        </mxCell>
        <mxCell id="hztvCsiQBSSxoYdSa1Fd-8" value="สร้าง sum มาเก็บผลรวมในลูป" style="rounded=0;whiteSpace=wrap;html=1;" vertex="1" parent="1">
          <mxGeometry x="175" y="180" width="150" height="40" as="geometry" />
        </mxCell>
        <mxCell id="hztvCsiQBSSxoYdSa1Fd-15" style="edgeStyle=none;curved=1;orthogonalLoop=1;jettySize=auto;html=1;exitX=0.5;exitY=1;exitDx=0;exitDy=0;entryX=0.5;entryY=0;entryDx=0;entryDy=0;fontSize=12;startSize=8;endSize=8;" edge="1" parent="1" source="hztvCsiQBSSxoYdSa1Fd-12" target="hztvCsiQBSSxoYdSa1Fd-14">
          <mxGeometry relative="1" as="geometry" />
        </mxCell>
        <mxCell id="hztvCsiQBSSxoYdSa1Fd-12" value="สร้าง num เก็บค่าเป็นอาเรย์" style="rounded=0;whiteSpace=wrap;html=1;" vertex="1" parent="1">
          <mxGeometry x="175" y="260" width="150" height="40" as="geometry" />
        </mxCell>
        <mxCell id="hztvCsiQBSSxoYdSa1Fd-17" style="edgeStyle=none;curved=1;orthogonalLoop=1;jettySize=auto;html=1;exitX=0.5;exitY=1;exitDx=0;exitDy=0;entryX=0.5;entryY=0;entryDx=0;entryDy=0;fontSize=12;startSize=8;endSize=8;" edge="1" parent="1" source="hztvCsiQBSSxoYdSa1Fd-14" target="hztvCsiQBSSxoYdSa1Fd-16">
          <mxGeometry relative="1" as="geometry" />
        </mxCell>
        <mxCell id="hztvCsiQBSSxoYdSa1Fd-14" value="สร้าง avg เก็บค่าเฉลี่ยเป็นทศนิยม" style="rounded=0;whiteSpace=wrap;html=1;" vertex="1" parent="1">
          <mxGeometry x="175" y="340" width="150" height="40" as="geometry" />
        </mxCell>
        <mxCell id="hztvCsiQBSSxoYdSa1Fd-19" value="" style="edgeStyle=none;curved=1;orthogonalLoop=1;jettySize=auto;html=1;fontSize=12;startSize=8;endSize=8;" edge="1" parent="1" source="hztvCsiQBSSxoYdSa1Fd-22" target="hztvCsiQBSSxoYdSa1Fd-18">
          <mxGeometry relative="1" as="geometry" />
        </mxCell>
        <mxCell id="hztvCsiQBSSxoYdSa1Fd-16" value="รับค่า value" style="shape=parallelogram;perimeter=parallelogramPerimeter;whiteSpace=wrap;html=1;fixedSize=1;" vertex="1" parent="1">
          <mxGeometry x="160" y="420" width="180" height="40" as="geometry" />
        </mxCell>
        <mxCell id="hztvCsiQBSSxoYdSa1Fd-25" value="" style="edgeStyle=none;curved=1;orthogonalLoop=1;jettySize=auto;html=1;fontSize=12;startSize=8;endSize=8;" edge="1" parent="1" source="hztvCsiQBSSxoYdSa1Fd-18" target="hztvCsiQBSSxoYdSa1Fd-24">
          <mxGeometry relative="1" as="geometry" />
        </mxCell>
        <mxCell id="hztvCsiQBSSxoYdSa1Fd-26" value="เท็จ" style="edgeLabel;html=1;align=center;verticalAlign=middle;resizable=0;points=[];fontSize=12;" vertex="1" connectable="0" parent="hztvCsiQBSSxoYdSa1Fd-25">
          <mxGeometry x="-0.2733" relative="1" as="geometry">
            <mxPoint as="offset" />
          </mxGeometry>
        </mxCell>
        <mxCell id="hztvCsiQBSSxoYdSa1Fd-34" value="" style="edgeStyle=none;curved=1;orthogonalLoop=1;jettySize=auto;html=1;fontSize=12;startSize=8;endSize=8;" edge="1" parent="1" source="hztvCsiQBSSxoYdSa1Fd-18" target="hztvCsiQBSSxoYdSa1Fd-33">
          <mxGeometry relative="1" as="geometry" />
        </mxCell>
        <mxCell id="hztvCsiQBSSxoYdSa1Fd-43" value="จริง" style="edgeLabel;html=1;align=center;verticalAlign=middle;resizable=0;points=[];fontSize=12;" vertex="1" connectable="0" parent="hztvCsiQBSSxoYdSa1Fd-34">
          <mxGeometry x="0.0358" y="4" relative="1" as="geometry">
            <mxPoint as="offset" />
          </mxGeometry>
        </mxCell>
        <mxCell id="hztvCsiQBSSxoYdSa1Fd-18" value="i &lt; value" style="rhombus;whiteSpace=wrap;html=1;" vertex="1" parent="1">
          <mxGeometry x="210" y="640" width="80" height="80" as="geometry" />
        </mxCell>
        <mxCell id="hztvCsiQBSSxoYdSa1Fd-21" value="" style="edgeStyle=none;curved=1;orthogonalLoop=1;jettySize=auto;html=1;fontSize=12;startSize=8;endSize=8;" edge="1" parent="1" source="hztvCsiQBSSxoYdSa1Fd-16" target="hztvCsiQBSSxoYdSa1Fd-20">
          <mxGeometry relative="1" as="geometry">
            <mxPoint x="250" y="460" as="sourcePoint" />
            <mxPoint x="250" y="585" as="targetPoint" />
          </mxGeometry>
        </mxCell>
        <mxCell id="hztvCsiQBSSxoYdSa1Fd-20" value="i = 0" style="rounded=0;whiteSpace=wrap;html=1;" vertex="1" parent="1">
          <mxGeometry x="190" y="510" width="120" height="30" as="geometry" />
        </mxCell>
        <mxCell id="hztvCsiQBSSxoYdSa1Fd-23" value="" style="edgeStyle=none;curved=1;orthogonalLoop=1;jettySize=auto;html=1;fontSize=12;startSize=8;endSize=8;" edge="1" parent="1" source="hztvCsiQBSSxoYdSa1Fd-20" target="hztvCsiQBSSxoYdSa1Fd-22">
          <mxGeometry relative="1" as="geometry">
            <mxPoint x="250" y="540" as="sourcePoint" />
            <mxPoint x="250" y="640" as="targetPoint" />
          </mxGeometry>
        </mxCell>
        <mxCell id="hztvCsiQBSSxoYdSa1Fd-22" value="" style="ellipse;whiteSpace=wrap;html=1;aspect=fixed;" vertex="1" parent="1">
          <mxGeometry x="235" y="570" width="30" height="30" as="geometry" />
        </mxCell>
        <mxCell id="hztvCsiQBSSxoYdSa1Fd-29" value="" style="edgeStyle=none;curved=1;orthogonalLoop=1;jettySize=auto;html=1;fontSize=12;startSize=8;endSize=8;" edge="1" parent="1" source="hztvCsiQBSSxoYdSa1Fd-27" target="hztvCsiQBSSxoYdSa1Fd-28">
          <mxGeometry relative="1" as="geometry" />
        </mxCell>
        <mxCell id="hztvCsiQBSSxoYdSa1Fd-24" value="avg = ( float ) sum / value" style="rounded=0;whiteSpace=wrap;html=1;" vertex="1" parent="1">
          <mxGeometry x="175" y="780" width="150" height="40" as="geometry" />
        </mxCell>
        <mxCell id="hztvCsiQBSSxoYdSa1Fd-32" value="" style="edgeStyle=none;curved=1;orthogonalLoop=1;jettySize=auto;html=1;fontSize=12;startSize=8;endSize=8;" edge="1" parent="1" source="hztvCsiQBSSxoYdSa1Fd-28" target="hztvCsiQBSSxoYdSa1Fd-31">
          <mxGeometry relative="1" as="geometry" />
        </mxCell>
        <mxCell id="hztvCsiQBSSxoYdSa1Fd-28" value="&lt;span style=&quot;color: rgb(0, 0, 0); font-family: Helvetica; font-size: 12px; font-style: normal; font-variant-ligatures: normal; font-variant-caps: normal; font-weight: 400; letter-spacing: normal; orphans: 2; text-align: center; text-indent: 0px; text-transform: none; widows: 2; word-spacing: 0px; -webkit-text-stroke-width: 0px; white-space: normal; background-color: rgb(251, 251, 251); text-decoration-thickness: initial; text-decoration-style: initial; text-decoration-color: initial; display: inline !important; float: none;&quot;&gt;แสดงค่า avg&lt;/span&gt;" style="shape=parallelogram;perimeter=parallelogramPerimeter;whiteSpace=wrap;html=1;fixedSize=1;" vertex="1" parent="1">
          <mxGeometry x="161" y="970" width="180" height="40" as="geometry" />
        </mxCell>
        <mxCell id="hztvCsiQBSSxoYdSa1Fd-30" value="" style="edgeStyle=none;curved=1;orthogonalLoop=1;jettySize=auto;html=1;fontSize=12;startSize=8;endSize=8;" edge="1" parent="1" source="hztvCsiQBSSxoYdSa1Fd-24" target="hztvCsiQBSSxoYdSa1Fd-27">
          <mxGeometry relative="1" as="geometry">
            <mxPoint x="250" y="820" as="sourcePoint" />
            <mxPoint x="250" y="970" as="targetPoint" />
          </mxGeometry>
        </mxCell>
        <mxCell id="hztvCsiQBSSxoYdSa1Fd-27" value="แสดงค่า sum" style="shape=parallelogram;perimeter=parallelogramPerimeter;whiteSpace=wrap;html=1;fixedSize=1;" vertex="1" parent="1">
          <mxGeometry x="160" y="870" width="180" height="40" as="geometry" />
        </mxCell>
        <mxCell id="hztvCsiQBSSxoYdSa1Fd-31" value="จบ" style="rounded=1;whiteSpace=wrap;html=1;arcSize=50;" vertex="1" parent="1">
          <mxGeometry x="190" y="1070" width="120" height="50" as="geometry" />
        </mxCell>
        <mxCell id="hztvCsiQBSSxoYdSa1Fd-36" value="" style="edgeStyle=none;curved=1;orthogonalLoop=1;jettySize=auto;html=1;fontSize=12;startSize=8;endSize=8;" edge="1" parent="1" source="hztvCsiQBSSxoYdSa1Fd-33" target="hztvCsiQBSSxoYdSa1Fd-35">
          <mxGeometry relative="1" as="geometry" />
        </mxCell>
        <mxCell id="hztvCsiQBSSxoYdSa1Fd-33" value="แสดง Enter number&lt;div&gt;และค่า i +1&lt;/div&gt;" style="shape=parallelogram;perimeter=parallelogramPerimeter;whiteSpace=wrap;html=1;fixedSize=1;" vertex="1" parent="1">
          <mxGeometry x="414" y="660" width="180" height="40" as="geometry" />
        </mxCell>
        <mxCell id="hztvCsiQBSSxoYdSa1Fd-38" style="edgeStyle=none;curved=1;orthogonalLoop=1;jettySize=auto;html=1;exitX=0.5;exitY=1;exitDx=0;exitDy=0;entryX=0.5;entryY=0;entryDx=0;entryDy=0;fontSize=12;startSize=8;endSize=8;" edge="1" parent="1" source="hztvCsiQBSSxoYdSa1Fd-35" target="hztvCsiQBSSxoYdSa1Fd-37">
          <mxGeometry relative="1" as="geometry" />
        </mxCell>
        <mxCell id="hztvCsiQBSSxoYdSa1Fd-35" value="รับค่า num เก็บไว้ในตำแหน่ง i" style="shape=parallelogram;perimeter=parallelogramPerimeter;whiteSpace=wrap;html=1;fixedSize=1;" vertex="1" parent="1">
          <mxGeometry x="414" y="750" width="180" height="40" as="geometry" />
        </mxCell>
        <mxCell id="hztvCsiQBSSxoYdSa1Fd-40" style="edgeStyle=none;curved=1;orthogonalLoop=1;jettySize=auto;html=1;exitX=0.5;exitY=1;exitDx=0;exitDy=0;entryX=0.5;entryY=0;entryDx=0;entryDy=0;fontSize=12;startSize=8;endSize=8;" edge="1" parent="1" source="hztvCsiQBSSxoYdSa1Fd-37" target="hztvCsiQBSSxoYdSa1Fd-39">
          <mxGeometry relative="1" as="geometry" />
        </mxCell>
        <mxCell id="hztvCsiQBSSxoYdSa1Fd-37" value="sum = sum + num[ i ]" style="rounded=0;whiteSpace=wrap;html=1;" vertex="1" parent="1">
          <mxGeometry x="444" y="840" width="120" height="30" as="geometry" />
        </mxCell>
        <mxCell id="hztvCsiQBSSxoYdSa1Fd-41" style="edgeStyle=orthogonalEdgeStyle;orthogonalLoop=1;jettySize=auto;html=1;exitX=0.5;exitY=1;exitDx=0;exitDy=0;entryX=1;entryY=0.5;entryDx=0;entryDy=0;fontSize=12;startSize=8;endSize=8;rounded=0;curved=0;" edge="1" parent="1" source="hztvCsiQBSSxoYdSa1Fd-39" target="hztvCsiQBSSxoYdSa1Fd-22">
          <mxGeometry relative="1" as="geometry">
            <Array as="points">
              <mxPoint x="504" y="1000" />
              <mxPoint x="720" y="1000" />
              <mxPoint x="720" y="585" />
            </Array>
          </mxGeometry>
        </mxCell>
        <mxCell id="hztvCsiQBSSxoYdSa1Fd-39" value="i + 1" style="rounded=0;whiteSpace=wrap;html=1;" vertex="1" parent="1">
          <mxGeometry x="444" y="920" width="120" height="30" as="geometry" />
        </mxCell>
      </root>
    </mxGraphModel>
  </diagram>
</mxfile>
